Coordinates
version=1
nRows=13
nColumns=36
inDegrees=yes

Units are S.I. units (second, meters, Newtons, ...)
If the header above contains a line with 'inDegrees', this indicates whether rotational values are in degrees (yes) or radians (no).

endheader
time	pelvis_tilt	pelvis_list	pelvis_rotation	pelvis_tx	pelvis_ty	pelvis_tz	hip_flexion_r	hip_adduction_r	hip_rotation_r	knee_angle_r	knee_angle_r_beta	ankle_angle_r	subtalar_angle_r	mtp_angle_r	hip_flexion_l	hip_adduction_l	hip_rotation_l	knee_angle_l	knee_angle_l_beta	ankle_angle_l	subtalar_angle_l	mtp_angle_l	lumbar_extension	lumbar_bending	lumbar_rotation	arm_flex_r	arm_add_r	arm_rot_r	elbow_flex_r	pro_sup_r	arm_flex_l	arm_add_l	arm_rot_l	elbow_flex_l	pro_sup_l
      3.51250000	     -9.37902891	      1.14461042	      1.93217448	      0.50244257	      0.95424303	     -0.07231725	     27.72904268	     -0.13781791	     14.35428066	     36.98066665	      0.64543439	     15.28068666	    -20.90966247	     -7.49999987	     28.99166513	      1.45610425	      9.35439328	     38.08008820	      0.66462292	      9.78972117	    -25.44260131	     -7.49999987	    -12.56803353	      1.84303326	      1.59272998	      2.77313824	    -14.65564967	    -21.25660775	     30.76522725	     79.65612497	     -2.68263028	    -13.97965536	    -40.66742315	     52.45238492	     75.54247738
      3.51666670	     -9.01839814	      1.19124875	      2.20104826	      0.50363424	      0.95240801	     -0.07196256	     27.83969154	     -0.10877167	     14.20310695	     38.25290542	      0.66763915	     15.62524726	    -20.74852918	     -7.49999987	     29.13390077	      1.33126499	      8.59380679	     39.00123593	      0.68069998	     10.18015006	    -24.44952691	     -7.49999987	    -13.01024175	      1.67949367	      1.45509515	      2.69258136	    -14.19172640	    -21.20273540	     30.95986912	     78.25834949	     -2.39433028	    -13.68773842	    -40.35764051	     52.19341370	     74.31400678
      3.52083330	     -8.65008004	      1.29696057	      2.41323759	      0.50435458	      0.94931851	     -0.07232106	     28.05785077	     -0.11659451	     13.91708106	     39.62895156	      0.69165568	     16.07351944	    -20.78681619	     -7.49999987	     29.21251412	      1.20079683	      7.65980618	     39.87077454	      0.69587629	     10.92008385	    -23.41138389	     -7.49999987	    -13.44470044	      1.41625597	      1.25059988	      2.84540737	    -13.81289023	    -21.03127060	     30.86235288	     77.74196427	     -2.10779749	    -13.53152696	    -40.06504163	     51.92182974	     73.81200753
      3.52500000	     -8.38085391	      1.29944032	      2.68403586	      0.50553055	      0.95357552	     -0.07265421	     27.95439927	     -0.15625520	     13.62111633	     40.18218580	      0.70131144	     16.18889152	    -20.74873701	     -7.49999987	     29.03491978	      1.04971475	      7.19057847	     40.01010122	      0.69830800	     10.90332426	    -22.91282074	     -7.49999987	    -13.71173369	      1.30904440	      0.94239500	      3.02811037	    -13.43903883	    -20.85981815	     30.69306382	     77.83319475	     -1.91832949	    -13.20620258	    -39.76654907	     51.52825550	     73.84587642
      3.52916670	     -7.64310251	      1.45309887	      2.80967888	      0.50840906	      0.95499483	     -0.07455540	     27.08077933	     -0.38424852	     13.26545439	     40.34204009	      0.70410143	     16.70923807	    -20.34426463	     -7.49999987	     28.04586691	      0.90091813	      6.34566277	     39.80921845	      0.69480193	     11.93254563	    -21.18895590	     -7.49999987	    -14.32150458	      1.14759170	      0.65861705	      3.44795822	    -13.16977607	    -20.47216648	     30.07275657	     77.85809963	     -1.58333078	    -13.03661769	    -39.14341843	     50.15993155	     73.73552045
      3.53333330	     -7.15459568	      1.55762106	      2.99528268	      0.50977867	      0.95733379	     -0.07492244	     26.36181694	     -0.58163645	     12.93930246	     40.20827816	      0.70176684	     16.60081675	    -20.52092009	     -7.49999987	     27.26204542	      0.80944477	      5.73848665	     39.50279535	      0.68945384	     12.03464310	    -20.46801455	     -7.49999987	    -14.85490083	      1.05088819	      0.47581370	      3.64955483	    -12.96278898	    -20.07935607	     29.72383617	     77.65249335	     -1.28242386	    -12.76439400	    -38.40489476	     49.29858187	     73.42268476
      3.53750000	     -6.75558949	      1.73835189	      3.11335507	      0.50980223	      0.95461056	     -0.07600820	     25.85646262	     -0.93900025	     12.56061832	     40.25032280	      0.70250066	     16.88919589	    -20.42281323	     -7.49999987	     26.71273342	      0.83266661	      5.08254442	     39.33239649	      0.68647982	     12.31405318	    -19.47951562	     -7.49999987	    -15.34762330	      0.89822818	      0.28325402	      3.86440417	    -12.82089826	    -19.73223763	     29.82229735	     77.32515314	     -1.10880623	    -12.44017366	    -37.76170629	     48.69120297	     73.01577903
      3.54166670	     -6.48131351	      1.86930529	      3.25535266	      0.51119875	      0.95404587	     -0.07682847	     25.47562796	     -1.24980954	     12.20932092	     40.29078285	      0.70320682	     17.16531764	    -20.45775286	     -7.49999987	     26.30114962	      0.81857004	      4.48637225	     39.22340137	      0.68457750	     12.68201063	    -18.60860782	     -7.49999987	    -15.76701581	      0.82634726	      0.17426837	      3.95356758	    -12.71451835	    -19.42109267	     29.99879094	     76.34363442	     -0.97106460	    -12.04104125	    -37.12531484	     48.21093382	     72.05956826
      3.54583330	     -6.24886969	      1.92903347	      3.32374824	      0.51126395	      0.95439049	     -0.07567617	     25.15260031	     -1.45626492	     11.84965066	     40.23630815	      0.70225606	     17.52284719	    -20.36190653	     -7.49999987	     25.93269769	      0.71308075	      4.13429219	     39.05918861	      0.68171144	     13.15375738	    -17.51027301	     -7.49999987	    -16.09223374	      0.78381861	      0.06525822	      4.11325369	    -12.56444134	    -19.01794267	     30.18736452	     76.07542594	     -0.88995604	    -11.62710929	    -36.58958377	     47.76753676	     71.66416942
      3.55000000	     -5.96772914	      1.94661862	      3.45752845	      0.51332610	      0.95530484	     -0.07378069	     24.52981932	     -1.57079261	     11.37886948	     39.92296564	      0.69678720	     17.91426109	    -19.87024011	     -7.49999987	     25.40815406	      0.43791711	      3.77297627	     38.80645133	      0.67730035	     13.62615615	    -16.24327602	     -7.49999987	    -16.26348239	      0.72228112	     -0.05921444	      4.21865053	    -12.33927859	    -18.45787644	     30.16551846	     76.34667575	     -0.79197063	    -11.33981147	    -36.00080816	     47.25076416	     71.62010340
      3.55416670	     -5.86696464	      1.99616956	      3.49435105	      0.51498474	      0.95379536	     -0.07404012	     24.28939919	     -1.71726420	     10.92919038	     39.89530170	      0.69630437	     18.07248809	    -19.76379226	     -7.49999987	     25.16028057	      0.19370692	      3.26281126	     38.73172907	      0.67599620	     13.97960527	    -15.07231797	     -7.49999987	    -16.19086771	      0.57848711	     -0.12185374	      4.19989749	    -12.10395257	    -18.10016000	     30.34381295	     76.54227783	     -0.75590762	    -11.10790151	    -35.56534991	     46.85177629	     71.63125032
      3.55833330	     -5.72761312	      2.09473336	      3.48394258	      0.51635644	      0.95725892	     -0.07465266	     23.76093323	     -2.02040406	     10.46218105	     39.41095008	      0.68785084	     18.12319214	    -19.43571767	     -7.49999987	     24.60155296	      0.02977983	      2.98927545	     38.23551898	      0.66733570	     14.21432813	    -13.69434528	     -7.49999987	    -15.94967176	      0.36032780	     -0.25703824	      4.17494852	    -11.76198751	    -17.77447922	     30.29596843	     76.76256578	     -0.76680785	    -10.83701295	    -35.21035269	     46.21078400	     71.72303197
      3.56250000	     -5.76405705	      2.08135385	      3.59014932	      0.51885072	      0.95696575	     -0.07367328	     23.48435023	     -2.13838936	     10.29471565	     39.14819133	      0.68326483	     18.07736730	    -19.48534823	     -7.49999987	     24.32121007	     -0.20612832	      2.54267276	     37.91240541	      0.66169630	     14.86420195	    -12.14509765	     -7.49999987	    -15.66908429	      0.25576014	     -0.35814952	      4.01706667	    -11.52492092	    -17.25963617	     30.26060502	     77.30422801	     -0.86372370	    -10.63027269	    -34.74169278	     45.65627293	     72.01612825
